<?xml version="1.0" encoding="UTF-8"?>
<svg width="601px" height="600px" viewBox="0 0 601 600" xmlns="http://www.w3.org/2000/svg" xmlns:xlink="http://www.w3.org/1999/xlink" version="1.1">
 <!-- Generated by Pixelmator Pro 1.8 -->
 <path id="Shape" d="M300.193 600 C134.402 600 0 465.685 0 300 0 134.315 134.402 0 300.193 0 465.985 0 600.385 134.315 600.385 300 600.385 465.685 465.985 600 300.193 600 Z M230.793 392.922 C238.393 392.915 244.826 391.543 250.09 388.805 255.354 386.066 259.917 381.561 263.777 375.291 L264.178 375.291 C264.18 377.824 264.282 380.425 264.484 383.092 264.687 385.758 264.988 388.224 265.391 390.49 L278.191 390.479 C277.789 387.946 277.419 384.712 277.082 380.779 276.745 376.846 276.576 373.081 276.572 369.48 L276.531 327.68 C276.526 321.946 275.589 317.014 273.719 312.883 271.848 308.751 269.378 305.32 266.309 302.59 263.239 299.859 259.604 297.829 255.402 296.5 251.201 295.171 246.834 294.507 242.301 294.512 224.701 294.528 211.504 299.073 202.713 308.148 L210.723 317.541 C218.849 310.2 228.379 306.526 239.313 306.516 255.313 306.501 263.321 314.558 263.336 330.691 L263.338 333.092 256.736 333.098 C251.136 333.103 244.971 333.376 238.238 333.916 231.505 334.456 225.174 335.795 219.242 337.934 213.311 340.073 208.38 343.309 204.451 347.646 200.522 351.984 198.561 357.953 198.568 365.553 198.573 370.086 199.476 374.053 201.279 377.451 203.082 380.849 205.484 383.712 208.486 386.043 211.489 388.373 214.923 390.105 218.791 391.234 222.659 392.364 226.66 392.926 230.793 392.922 Z M92.391 390.652 L105.592 390.641 105.547 342.641 C105.539 334.107 106.865 327.439 109.527 322.637 112.19 317.834 115.219 314.231 118.617 311.828 122.015 309.425 125.246 307.954 128.313 307.418 131.379 306.882 133.245 306.614 133.912 306.613 143.645 306.604 150.315 309.365 153.92 314.895 157.525 320.424 159.332 328.389 159.342 338.789 L159.391 390.59 172.592 390.578 172.535 331.178 C172.524 319.444 169.649 310.414 163.91 304.086 158.171 297.758 149.301 294.598 137.301 294.609 134.234 294.612 131.134 295.05 128.002 295.92 124.869 296.79 121.904 297.991 119.105 299.527 116.307 301.063 113.776 302.9 111.512 305.035 109.247 307.171 107.382 309.504 105.918 312.039 L105.518 312.041 105.449 239.439 92.25 239.453 92.391 390.652 Z M307.391 390.451 L320.592 390.438 320.547 342.439 C320.539 333.906 321.865 327.238 324.527 322.436 327.19 317.633 330.219 314.03 333.617 311.627 337.015 309.224 340.246 307.753 343.313 307.217 346.379 306.681 348.245 306.413 348.912 306.412 358.646 306.403 365.315 309.163 368.92 314.693 372.525 320.223 374.332 328.188 374.342 338.588 L374.391 390.389 387.592 390.375 387.535 330.977 C387.524 319.243 384.649 310.211 378.91 303.883 373.171 297.555 364.301 294.397 352.301 294.408 349.234 294.411 346.134 294.847 343.002 295.717 339.869 296.586 336.904 297.79 334.105 299.326 331.307 300.862 328.776 302.697 326.512 304.832 324.247 306.967 322.382 309.303 320.918 311.838 L320.518 311.838 C320.515 309.305 320.479 306.805 320.41 304.338 320.341 301.871 320.171 299.373 319.902 296.84 L306.303 296.852 C306.573 300.318 306.81 303.985 307.014 307.852 307.217 311.718 307.32 314.918 307.322 317.451 L307.391 390.451 Z M403.791 390.361 L432.191 390.334 457.359 355.91 482.391 390.287 511.592 390.26 472.943 338.695 505.701 294.266 478.301 294.291 457.527 323.109 438.301 294.328 409.102 294.355 442.342 338.725 403.791 390.361 Z M234.982 380.918 C232.316 380.92 229.683 380.623 227.082 380.025 224.481 379.428 222.113 378.431 219.979 377.033 217.844 375.635 216.142 373.836 214.873 371.637 213.604 369.438 212.97 366.807 212.967 363.74 212.962 359.074 214.591 355.404 217.855 352.734 221.12 350.065 225.052 348.095 229.65 346.824 234.249 345.553 239.047 344.748 244.047 344.41 249.047 344.072 253.214 343.902 256.547 343.898 L263.348 343.893 263.354 350.691 C263.357 354.825 262.794 358.727 261.664 362.395 260.534 366.062 258.77 369.262 256.373 371.998 253.976 374.734 251.012 376.904 247.48 378.508 243.949 380.111 239.782 380.913 234.982 380.918 Z" fill="#f5faff" fill-opacity="1" stroke="none"/>
</svg>
