<?xml version="1.0" encoding="UTF-8"?>
<svg width="584px" height="605px" viewBox="0 0 584 605" xmlns="http://www.w3.org/2000/svg" xmlns:xlink="http://www.w3.org/1999/xlink" version="1.1">
 <!-- Generated by Pixelmator Pro 1.8 -->
 <g id="Group">
  <g id="Man-sitting">
   <path id="Path" d="M257.87 518.14 C257.87 520.51 256.48 535.46 259.25 536.84 262.02 538.22 292.46 539.06 293.85 537.67 295.24 536.28 296.06 533.38 294.85 532.55 293.64 531.72 281.85 529.37 280.25 528.26 278.65 527.15 276.44 521.26 277.25 518.14" fill="#1f161e" fill-opacity="1" stroke="none"/>
   <path id="Path-1" d="M166.83 322.71 L184 316.57 C183.26 285.3 175.95 215.43 165.56 205.04 163.13 202.6 114.87 198.36 106.25 198.36 54.87 198.36 39.64 204.23 35.76 208.1 23.75 220.09 20 275.71 20 295.18 20 314.65 75 324.74 75 324.74 L139.47 329.18 C139.47 329.18 153.62 330.63 165.85 331.35 166.11 327.6 166.83 322.71 166.83 322.71 Z" fill="#ffffff" fill-opacity="1" stroke="none"/>
   <path id="Path-2" d="M217.9 340.84 C222.59 339.45 269.23 331.84 279.38 341.84 289.53 351.84 321.53 495.21 321.53 498.51 L295.78 498.51 261 423.74" fill="#1f161e" fill-opacity="1" stroke="none"/>
   <path id="Path-3" d="M48.09 328.09 C46.92 333.94 39.89 340.22 39.89 372.09 39.89 416.17 75.98 417.09 88.95 417.09 129.32 417.09 194.66 405.09 199.07 402.9 202 407.79 255.93 517.9 256.17 520.35 L281 520.35 C281 520.35 265.61 355.71 237.85 337 228.83 331 68.79 324.53 48.09 328.09 Z" fill="#8687be" fill-opacity="1" stroke="none"/>
   <path id="Path-4" d="M193.49 295.87 C186.96 295.87 181.59 297.42 166.83 300.32 L166.05 328.56 C180.05 322.92 183.31 315.08 187.37 315.08 197.51 315.08 202.81 320.31 208.8 320.31 212.98 320.31 220.49 317.03 220.49 312.57 220.49 303.23 201.56 295.87 193.49 295.87 Z" fill="#f8cdba" fill-opacity="1" stroke="none"/>
   <path id="Path-5" d="M297.24 496.53 C297.24 498.91 295.85 513.85 298.62 515.24 301.39 516.63 331.83 517.45 333.22 516.07 334.61 514.69 335.43 511.78 334.22 510.95 333.01 510.12 321.22 507.76 319.62 506.66 318.02 505.56 315.81 499.66 316.62 496.53" fill="#1f161e" fill-opacity="1" stroke="none"/>
   <path id="Path-6" d="M115.31 205 C115.31 208.78 93.43 208.89 93.43 205 L93.43 174.35 115.31 174.35 Z" fill="#f8cdba" fill-opacity="1" stroke="none"/>
   <path id="Path-7" d="M108.19 184.42 C106.19 184.42 93.43 190.05 93.43 193.2 L93.43 176.61 C96.61 176.61 108.19 184.42 108.19 184.42 Z" fill="#1f161e" fill-opacity="1" stroke="none"/>
   <path id="Path-8" d="M138.91 159.27 C138.91 173.906 127.046 185.77 112.41 185.77 97.774 185.77 85.91 173.906 85.91 159.27 85.91 144.634 97.774 132.77 112.41 132.77 127.046 132.77 138.91 144.634 138.91 159.27 Z" fill="#f8cdba" fill-opacity="1" stroke="none"/>
   <path id="Path-9" d="M139.77 138.5 C136.49 143.71 129.63 146.1 122.2 146.1 115.87 146.1 106.65 144.26 100.08 148 96.54 150 92.47 154.55 91.64 163.66 91.64 165.22 89.88 171.27 89.88 173.22 89.88 174.56 88.38 175.43 85.88 175.43 84.59 175.43 82.05 173.33 82.05 170.14 82.05 166.45 83.51 165.14 83.51 162.01 83.51 158.88 79.61 155.83 79.61 147.13 79.61 134.6 87.61 126.88 93.27 126.88 98.42 126.88 100.05 128.08 100.7 128.59 100.7 117.2 115.7 112 121.7 112 128.5 112 131.7 114.8 131.7 118.34 131.7 124.01 129.01 128.81 127.64 129.89 130.738 127.102 134.762 125.566 138.93 125.58 146.73 125.58 149.35 130.7 149.35 134.2 149.35 141.82 140.21 148.87 136.81 148.87 135.958 147.055 134.954 145.316 133.81 143.67" fill="#1f161e" fill-opacity="1" stroke="none"/>
   <path id="Path-10" d="M98.12 162.77 C98.12 165.89 95.59 168.42 92.47 168.42 89.35 168.42 86.82 165.89 86.82 162.77 86.82 159.65 89.35 157.12 92.47 157.12 95.59 157.12 98.12 159.65 98.12 162.77 Z" fill="#f8cdba" fill-opacity="1" stroke="none"/>
   <path id="Path-11" d="M143.55 161.85 C143.55 163.109 141.589 164.13 139.17 164.13 136.751 164.13 134.79 163.109 134.79 161.85 134.79 160.591 136.751 159.57 139.17 159.57 141.589 159.57 143.55 160.591 143.55 161.85 Z" fill="#fa9e9f" fill-opacity="1" stroke="none"/>
   <path id="Path-12" d="M116.01 161.85 C116.01 163.109 114.049 164.13 111.63 164.13 109.211 164.13 107.25 163.109 107.25 161.85 107.25 160.591 109.211 159.57 111.63 159.57 114.049 159.57 116.01 160.591 116.01 161.85 Z" fill="#fa9e9f" fill-opacity="1" stroke="none"/>
   <path id="Path-13" d="M128.48 157.12 C129.3 158.28 133.48 163.19 129.06 165.18" fill="none" stroke="#1f161e" stroke-width="1" stroke-opacity="1" stroke-linejoin="round"/>
   <path id="Path-14" d="M120.24 170.91 C118.92 170.91 116.89 169.28 115.81 167.8" fill="none" stroke="#1f161e" stroke-width="1" stroke-opacity="1" stroke-linejoin="round"/>
   <path id="Path-15" d="M155.18 242.08 C157.18 246.34 166.83 287.33 166.83 300.32" fill="none" stroke="#1f161e" stroke-width="1" stroke-opacity="1" stroke-linejoin="round"/>
   <path id="Path-16" d="M20 291.87 C20 337.96 20.42 351.33 38.93 351.33 81.57 351.33 146.03 316.33 157.52 316.33 167.66 316.33 172.96 321.56 178.96 321.56 183.13 321.56 190.65 318.27 190.65 313.82 190.65 304.48 171.72 297.12 163.65 297.12 145.49 297.12 72.97 314.63 71.21 314.63 69.45 314.63 66.46 313.86 66.46 310.88 66.46 305.47 69.99 292.98 70.46 291.88 Z" fill="#f8cdba" fill-opacity="1" stroke="none"/>
   <path id="Path-17" d="M81.1 251.67 C79.88 255.18 70.37 291.46 69.26 295.87" fill="none" stroke="#1f161e" stroke-width="1" stroke-opacity="1" stroke-linejoin="round"/>
  </g>
  <g id="Laptop">
   <g id="Layer_2-2">
    <path id="Path-18" d="M268.43 336.42 L175.92 336.42 192.68 278.79 C193.537 275.932 196.176 273.981 199.16 274 L277.66 274 C279.749 273.97 281.73 274.928 283.005 276.583 284.281 278.238 284.701 280.397 284.14 282.41 Z" fill="#d5d5d5" fill-opacity="1" stroke="none"/>
    <path id="Path-19" d="M122 332.38 L186.91 332.38 186.91 336.43 122 336.43 Z" fill="#d5d5d5" fill-opacity="1" stroke="none"/>
    <path id="Path-20" d="M239.19 305.21 C239.19 308.336 236.656 310.87 233.53 310.87 230.404 310.87 227.87 308.336 227.87 305.21 227.87 302.084 230.404 299.55 233.53 299.55 236.656 299.55 239.19 302.084 239.19 305.21 Z" fill="#ffffff" fill-opacity="1" stroke="none"/>
   </g>
  </g>
  <g id="tree">
   <g id="Layer_2-2-1">
    <path id="Path-21" d="M341.206 183.799 C389.859 166.707 431.319 233.532 442.486 251.29 491.319 329.3 450.102 397.33 428.46 405.135 390.731 418.757 349.775 357.48 338.185 338.076 318.404 305.203 324.554 259.184 322.36 245.158 320.166 231.131 328.231 188.358 341.206 183.799 Z" fill="#86a299" fill-opacity="1" stroke="none"/>
    <path id="Path-1" d="M466.997 100.961 C497.676 96.573 515.453 121.956 520.946 136.459 529.839 160.125 549 172.839 549 203.077 549 273.643 506.048 330.181 486.761 330.181 444.249 330.181 428.469 285.476 428.469 266.629 428.469 234.638 436.93 196.055 435.923 186.425 433.801 166.644 421.95 107.39 466.997 100.961 Z" fill="#7f80bb" fill-opacity="1" stroke="none"/>
    <path id="Path-2" d="M366.958 236.984 C377.649 250.957 432.533 379.752 443.691 523.58" fill="none" stroke="#ecd9bd" stroke-width="3.597" stroke-opacity="1" stroke-linejoin="round"/>
    <path id="Path-3" d="M402.33 232.273 C401.17 236.661 391.541 263.033 383.772 271.988" fill="none" stroke="#ecd9bd" stroke-width="3.597" stroke-opacity="1" stroke-linejoin="round"/>
    <path id="Path-4" d="M352.733 314.842 C360.115 319.742 381.344 324.517 402.924 324.643" fill="none" stroke="#ecd9bd" stroke-width="3.597" stroke-opacity="1" stroke-linejoin="round"/>
    <path id="Path-5" d="M429.898 345.665 C427.902 348.164 422.139 355.448 413.363 358.981" fill="none" stroke="#ecd9bd" stroke-width="3.597" stroke-opacity="1" stroke-linejoin="round"/>
    <path id="Path-6" d="M480.026 187.18 C492.659 271.988 462.547 487.389 461.468 523.58" fill="none" stroke="#ecd9bd" stroke-width="3.597" stroke-opacity="1" stroke-linejoin="round"/>
    <path id="Path-7" d="M510.588 194.329 C507.261 199.436 493.684 211.556 483.371 215.324" fill="none" stroke="#ecd9bd" stroke-width="3.597" stroke-opacity="1" stroke-linejoin="round"/>
    <path id="Path-8" d="M451.235 257.89 C457.871 260.947 470.342 266.315 482.355 266.315" fill="none" stroke="#ecd9bd" stroke-width="3.597" stroke-opacity="1" stroke-linejoin="round"/>
   </g>
  </g>
  <g id="Plant">
   <g id="Layer_2-2-2">
    <path id="Path-22" d="M466.49 439.29 C446 458.85 522.25 529.53 533.34 519.83 544.43 510.13 486.53 420.19 466.49 439.29 Z" fill="#8687be" fill-opacity="1" stroke="none"/>
    <path id="Path-23" d="M475.12 449.09 C483.72 456.53 523.12 499.47 533.34 519.83" fill="none" stroke="#fbdc8e" stroke-width="2" stroke-opacity="1" stroke-linejoin="round"/>
    <path id="Path-24" d="M505.86 376.52 C544.58 366 558.85 517.66 539.3 522.07 519.75 526.48 483.64 382.56 505.86 376.52 Z" fill="#ffffff" fill-opacity="1" stroke="none"/>
    <path id="Path-25" d="M514.7 401.86 C517.85 411 535.51 475.39 539.3 522.07" fill="none" stroke="#fbdc8e" stroke-width="2" stroke-opacity="1" stroke-linejoin="round"/>
   </g>
  </g>
 </g>
</svg>
